<?xml version="1.0" encoding="UTF-8" standalone="no"?>
<svg
   xmlns:dc="http://purl.org/dc/elements/1.1/"
   xmlns:cc="http://creativecommons.org/ns#"
   xmlns:rdf="http://www.w3.org/1999/02/22-rdf-syntax-ns#"
   xmlns:svg="http://www.w3.org/2000/svg"
   xmlns="http://www.w3.org/2000/svg"
   xmlns:xlink="http://www.w3.org/1999/xlink"
   xmlns:sodipodi="http://sodipodi.sourceforge.net/DTD/sodipodi-0.dtd"
   xmlns:inkscape="http://www.inkscape.org/namespaces/inkscape"
   width="500"
   version="1.1"
   id="svg156"
   sodipodi:docname="portfolio-logo-500x500.svg"
   height="500"
   inkscape:version="0.92.5 (2060ec1f9f, 2020-04-08)">
  <metadata
     id="metadata160">
    <rdf:RDF>
      <cc:Work
         rdf:about="">
        <dc:format>image/svg+xml</dc:format>
        <dc:type
           rdf:resource="http://purl.org/dc/dcmitype/StillImage" />
        <dc:title></dc:title>
      </cc:Work>
    </rdf:RDF>
  </metadata>
  <sodipodi:namedview
     pagecolor="#ffffff"
     bordercolor="#666666"
     borderopacity="1"
     objecttolerance="10"
     gridtolerance="10"
     guidetolerance="10"
     inkscape:pageopacity="0"
     inkscape:pageshadow="2"
     inkscape:window-width="1920"
     inkscape:window-height="1053"
     id="namedview158"
     showgrid="false"
     height="500px"
     inkscape:pagecheckerboard="true"
     borderlayer="false"
     width="500mm"
     units="px"
     inkscape:zoom="1.4142136"
     inkscape:cx="189.48536"
     inkscape:cy="246.49347"
     inkscape:window-x="0"
     inkscape:window-y="27"
     inkscape:window-maximized="1"
     inkscape:current-layer="svg156" />
  <defs
     id="defs150">
    <linearGradient
       inkscape:collect="always"
       id="linearGradient1711">
      <stop
         style="stop-color:#000000;stop-opacity:1;"
         offset="0"
         id="stop1707" />
      <stop
         style="stop-color:#000000;stop-opacity:0;"
         offset="1"
         id="stop1709" />
    </linearGradient>
    <pattern
       inkscape:collect="always"
       xlink:href="#b"
       id="pattern1685"
       patternTransform="matrix(0.92913604,0,0,1.1123284,-0.9628435,-0.22466898)" />
    <linearGradient
       id="a"
       gradientUnits="userSpaceOnUse"
       x1="0"
       x2="0"
       y1="0"
       y2="1"
       gradientTransform="matrix(0.70708513,0.70639613,-0.70708513,0.70639613,650.26417,-565.26628)">
      <stop
         offset="0"
         stop-color="#ffffff"
         id="stop4" />
      <stop
         offset="1"
         stop-color="#298DC0"
         id="stop6" />
    </linearGradient>
    <pattern
       patternUnits="userSpaceOnUse"
       id="b"
       width="340"
       height="283.3"
       x="0"
       y="0"
       viewBox="0 0 1080 900">
      <g
         fill-opacity="0.07"
         id="g147">
        <polygon
           fill="#444"
           points="90 150 0 300 180 300"
           id="polygon9" />
        <polygon
           points="90 150 180 0 0 0"
           id="polygon11" />
        <polygon
           fill="#AAA"
           points="270 150 360 0 180 0"
           id="polygon13" />
        <polygon
           fill="#DDD"
           points="450 150 360 300 540 300"
           id="polygon15" />
        <polygon
           fill="#999"
           points="450 150 540 0 360 0"
           id="polygon17" />
        <polygon
           points="630 150 540 300 720 300"
           id="polygon19" />
        <polygon
           fill="#DDD"
           points="630 150 720 0 540 0"
           id="polygon21" />
        <polygon
           fill="#444"
           points="810 150 720 300 900 300"
           id="polygon23" />
        <polygon
           fill="#FFF"
           points="810 150 900 0 720 0"
           id="polygon25" />
        <polygon
           fill="#DDD"
           points="990 150 900 300 1080 300"
           id="polygon27" />
        <polygon
           fill="#444"
           points="990 150 1080 0 900 0"
           id="polygon29" />
        <polygon
           fill="#DDD"
           points="90 450 0 600 180 600"
           id="polygon31" />
        <polygon
           points="90 450 180 300 0 300"
           id="polygon33" />
        <polygon
           fill="#666"
           points="270 450 180 600 360 600"
           id="polygon35" />
        <polygon
           fill="#AAA"
           points="270 450 360 300 180 300"
           id="polygon37" />
        <polygon
           fill="#DDD"
           points="450 450 360 600 540 600"
           id="polygon39" />
        <polygon
           fill="#999"
           points="450 450 540 300 360 300"
           id="polygon41" />
        <polygon
           fill="#999"
           points="630 450 540 600 720 600"
           id="polygon43" />
        <polygon
           fill="#FFF"
           points="630 450 720 300 540 300"
           id="polygon45" />
        <polygon
           points="810 450 720 600 900 600"
           id="polygon47" />
        <polygon
           fill="#DDD"
           points="810 450 900 300 720 300"
           id="polygon49" />
        <polygon
           fill="#AAA"
           points="990 450 900 600 1080 600"
           id="polygon51" />
        <polygon
           fill="#444"
           points="990 450 1080 300 900 300"
           id="polygon53" />
        <polygon
           fill="#222"
           points="90 750 0 900 180 900"
           id="polygon55" />
        <polygon
           points="270 750 180 900 360 900"
           id="polygon57" />
        <polygon
           fill="#DDD"
           points="270 750 360 600 180 600"
           id="polygon59" />
        <polygon
           points="450 750 540 600 360 600"
           id="polygon61" />
        <polygon
           points="630 750 540 900 720 900"
           id="polygon63" />
        <polygon
           fill="#444"
           points="630 750 720 600 540 600"
           id="polygon65" />
        <polygon
           fill="#AAA"
           points="810 750 720 900 900 900"
           id="polygon67" />
        <polygon
           fill="#666"
           points="810 750 900 600 720 600"
           id="polygon69" />
        <polygon
           fill="#999"
           points="990 750 900 900 1080 900"
           id="polygon71" />
        <polygon
           fill="#999"
           points="180 0 90 150 270 150"
           id="polygon73" />
        <polygon
           fill="#444"
           points="360 0 270 150 450 150"
           id="polygon75" />
        <polygon
           fill="#FFF"
           points="540 0 450 150 630 150"
           id="polygon77" />
        <polygon
           points="900 0 810 150 990 150"
           id="polygon79" />
        <polygon
           fill="#222"
           points="0 300 -90 450 90 450"
           id="polygon81" />
        <polygon
           fill="#FFF"
           points="0 300 90 150 -90 150"
           id="polygon83" />
        <polygon
           fill="#FFF"
           points="180 300 90 450 270 450"
           id="polygon85" />
        <polygon
           fill="#666"
           points="180 300 270 150 90 150"
           id="polygon87" />
        <polygon
           fill="#222"
           points="360 300 270 450 450 450"
           id="polygon89" />
        <polygon
           fill="#FFF"
           points="360 300 450 150 270 150"
           id="polygon91" />
        <polygon
           fill="#444"
           points="540 300 450 450 630 450"
           id="polygon93" />
        <polygon
           fill="#222"
           points="540 300 630 150 450 150"
           id="polygon95" />
        <polygon
           fill="#AAA"
           points="720 300 630 450 810 450"
           id="polygon97" />
        <polygon
           fill="#666"
           points="720 300 810 150 630 150"
           id="polygon99" />
        <polygon
           fill="#FFF"
           points="900 300 810 450 990 450"
           id="polygon101" />
        <polygon
           fill="#999"
           points="900 300 990 150 810 150"
           id="polygon103" />
        <polygon
           points="0 600 -90 750 90 750"
           id="polygon105" />
        <polygon
           fill="#666"
           points="0 600 90 450 -90 450"
           id="polygon107" />
        <polygon
           fill="#AAA"
           points="180 600 90 750 270 750"
           id="polygon109" />
        <polygon
           fill="#444"
           points="180 600 270 450 90 450"
           id="polygon111" />
        <polygon
           fill="#444"
           points="360 600 270 750 450 750"
           id="polygon113" />
        <polygon
           fill="#999"
           points="360 600 450 450 270 450"
           id="polygon115" />
        <polygon
           fill="#666"
           points="540 600 630 450 450 450"
           id="polygon117" />
        <polygon
           fill="#222"
           points="720 600 630 750 810 750"
           id="polygon119" />
        <polygon
           fill="#FFF"
           points="900 600 810 750 990 750"
           id="polygon121" />
        <polygon
           fill="#222"
           points="900 600 990 450 810 450"
           id="polygon123" />
        <polygon
           fill="#DDD"
           points="0 900 90 750 -90 750"
           id="polygon125" />
        <polygon
           fill="#444"
           points="180 900 270 750 90 750"
           id="polygon127" />
        <polygon
           fill="#FFF"
           points="360 900 450 750 270 750"
           id="polygon129" />
        <polygon
           fill="#AAA"
           points="540 900 630 750 450 750"
           id="polygon131" />
        <polygon
           fill="#FFF"
           points="720 900 810 750 630 750"
           id="polygon133" />
        <polygon
           fill="#222"
           points="900 900 990 750 810 750"
           id="polygon135" />
        <polygon
           fill="#222"
           points="1080 300 990 450 1170 450"
           id="polygon137" />
        <polygon
           fill="#FFF"
           points="1080 300 1170 150 990 150"
           id="polygon139" />
        <polygon
           points="1080 600 990 750 1170 750"
           id="polygon141" />
        <polygon
           fill="#666"
           points="1080 600 1170 450 990 450"
           id="polygon143" />
        <polygon
           fill="#DDD"
           points="1080 900 1170 750 990 750"
           id="polygon145" />
      </g>
    </pattern>
    <linearGradient
       inkscape:collect="always"
       xlink:href="#a"
       id="linearGradient1689"
       x1="511.6684"
       y1="74.838882"
       x2="410.25424"
       y2="208.35953"
       gradientUnits="userSpaceOnUse"
       gradientTransform="matrix(0.93261877,0,0,1.1085156,-3.5621966,1.1329201)" />
    <linearGradient
       inkscape:collect="always"
       xlink:href="#linearGradient1711"
       id="linearGradient1713"
       x1="84.400002"
       y1="225.58"
       x2="465.39908"
       y2="225.58"
       gradientUnits="userSpaceOnUse" />
  </defs>
  <rect
     x="-0.96282506"
     y="-0.22490692"
     width="501.73346"
     height="500.54776"
     id="rect152"
     style="fill:url(#linearGradient1689);fill-opacity:1;stroke-width:1.01624405"
     ry="0" />
  <rect
     width="501.73346"
     height="500.54776"
     id="rect2"
     style="fill:url(#pattern1685);fill-opacity:1;stroke-width:1.01661408"
     x="-0.96282506"
     y="-0.22490692"
     inkscape:export-xdpi="96"
     inkscape:export-ydpi="96" />
  <text
     xml:space="preserve"
     style="font-style:normal;font-variant:normal;font-weight:normal;font-stretch:normal;font-size:26.66666603px;line-height:1.25;font-family:AnjaliOldLipi;-inkscape-font-specification:'AnjaliOldLipi, Normal';font-variant-ligatures:normal;font-variant-caps:normal;font-variant-numeric:normal;font-feature-settings:normal;text-align:start;letter-spacing:0px;word-spacing:0px;writing-mode:lr-tb;text-anchor:start;fill:#ffffff;fill-opacity:1;stroke:none"
     x="66.564964"
     y="216.49391"
     id="text1705"><tspan
       sodipodi:role="line"
       id="tspan1703"
       x="66.564964"
       y="216.49391">Hi, my name is</tspan></text>
  <text
     xml:space="preserve"
     style="font-style:normal;font-variant:normal;font-weight:800;font-stretch:normal;font-size:40px;line-height:1.25;font-family:'JetBrainsMonoExtraBold Nerd Font';-inkscape-font-specification:'JetBrainsMonoExtraBold Nerd Font, Ultra-Bold';font-variant-ligatures:normal;font-variant-caps:normal;font-variant-numeric:normal;text-align:start;letter-spacing:0px;word-spacing:0px;writing-mode:lr-tb;text-anchor:start;fill:#ffffff;fill-opacity:0.94117647;stroke:none"
     x="63.493908"
     y="264.6655"
     id="text1693"><tspan
       sodipodi:role="line"
       id="tspan1691"
       x="63.493908"
       y="264.6655"
       style="fill:#ffffff;fill-opacity:0.94117647">Alejandro Milián</tspan></text>
  <g
     inkscape:groupmode="layer"
     id="layer1"
     inkscape:label="main"
     transform="translate(0,50)" />
</svg>
